<svg xmlns="http://www.w3.org/2000/svg" width="300" height="116" viewBox="0 0 784 302">
    <path fill="#252626" d="M252,202.34 L252,204.602 L261.715,204.602 L261.715,221.683 L264.296,221.683 L264.296,204.602 L273.953,204.602 L273.953,202.34 L252,202.34 Z M274.707,202.34 L286.249,213.766 L286.249,221.683 L288.83,221.683 L288.83,213.766 L300.169,202.34 L296.573,202.34 L287.554,211.62 L278.216,202.34 L274.707,202.34 Z M301.213,221.683 L303.794,221.683 L303.794,214.404 L313.451,214.404 C316.438,214.404 316.438,214.404 317.047,214.375 C319.425,214.317 320.266,214.085 321.281,213.186 C322.325,212.316 322.731,210.924 322.731,208.314 C322.731,205.675 322.267,204.225 321.165,203.384 C319.976,202.485 319.976,202.485 313.451,202.34 L301.213,202.34 L301.213,221.683 Z M303.794,212.142 L303.794,204.602 L313.451,204.602 C318.294,204.689 318.584,204.747 319.367,205.327 C319.918,205.762 320.092,206.429 320.092,208.401 C320.092,210.199 319.889,210.953 319.309,211.446 C318.526,212.084 318.12,212.142 313.451,212.142 L303.794,212.142 Z M336.854,202.282 C334.998,202.282 331.663,202.369 330.445,202.456 C327.98,202.601 327.023,202.862 326.066,203.587 C324.645,204.689 324.181,206.748 324.181,211.939 C324.181,217.13 324.471,218.841 325.631,220.03 C326.501,220.958 327.458,221.335 329.401,221.509 C330.532,221.625 334.824,221.741 337.724,221.741 C341.262,221.741 343.292,221.596 344.829,221.277 C346.627,220.871 347.671,219.74 348.019,217.797 C348.251,216.463 348.396,214.346 348.396,212.084 C348.396,210.518 348.309,208.517 348.193,207.473 C347.961,205.53 347.613,204.602 346.83,203.848 C345.583,202.601 343.466,202.282 336.854,202.282 Z M335.375,204.602 C340.305,204.602 341.813,204.66 343.292,204.892 C344.597,205.095 345.293,205.675 345.467,206.777 C345.641,207.647 345.757,209.967 345.757,212.142 C345.757,213.94 345.612,216.028 345.438,217.072 C345.206,218.232 344.597,218.841 343.437,219.044 C342.161,219.276 339.435,219.421 336.651,219.421 C335.259,219.421 331.982,219.334 330.909,219.247 C328.879,219.102 328.154,218.928 327.632,218.377 C327.023,217.71 326.82,215.97 326.82,211.736 C326.82,208.053 327.11,206.197 327.835,205.559 C328.589,204.863 330.561,204.602 335.375,204.602 Z M350.6,215.1 C350.6,217.333 350.629,217.855 350.89,218.87 C351.209,220.117 352.34,221.103 353.79,221.364 C354.979,221.596 358.198,221.741 361.678,221.741 C366.608,221.741 368.87,221.567 369.914,221.074 C371.596,220.32 372.234,218.986 372.234,216.26 C372.234,213.302 371.654,212.287 369.624,211.736 C371.654,210.924 372.031,210.228 372.031,207.328 C372.031,205.066 371.596,204.051 370.349,203.239 C369.16,202.485 367.275,202.282 361.62,202.282 C359.561,202.282 356.371,202.369 355.414,202.427 C353.616,202.572 352.833,202.833 352.05,203.5 C351.064,204.341 350.832,205.327 350.774,208.749 L353.413,208.749 L353.413,207.705 C353.413,206.081 353.616,205.472 354.254,205.124 C355.008,204.718 357.328,204.544 361.533,204.544 C365.042,204.544 367.362,204.689 368.116,204.95 C369.073,205.269 369.45,206.081 369.45,207.734 C369.45,210.199 368.754,210.663 364.955,210.663 L358.749,210.663 L358.749,212.867 L364.23,212.867 C365.564,212.867 367.884,213.07 368.261,213.215 C369.305,213.592 369.653,214.23 369.653,215.796 C369.653,218.406 369.218,219.073 367.507,219.247 C366.521,219.363 363.534,219.479 362.084,219.479 C358.459,219.479 355.037,219.305 354.37,219.044 C353.442,218.725 353.181,218 353.152,215.854 L353.152,215.1 L350.6,215.1 Z M382.297,202.34 L382.297,221.683 L384.878,221.683 L384.878,204.747 L386.009,204.747 L396.913,221.683 L399.001,221.683 L409.789,204.747 L410.862,204.747 L410.862,221.683 L413.443,221.683 L413.443,202.34 L408.252,202.34 L397.957,218.754 L387.459,202.34 L382.297,202.34 Z M418.402,212.287 C418.373,212.2 418.373,212.142 418.373,212.113 C418.373,210.286 419.272,209.938 423.854,209.938 C428.958,209.938 429.973,210.576 429.973,213.679 L429.973,215.129 L429.799,215.129 C428.871,213.853 427.943,213.679 422.404,213.679 C419.475,213.679 418.199,213.795 417.387,214.143 C416.082,214.694 415.56,215.709 415.56,217.768 C415.56,219.45 415.879,220.291 416.807,220.987 C417.764,221.683 419.127,221.857 423.825,221.857 C427.885,221.857 428.9,221.567 429.915,220.117 L430.002,220.117 L429.973,221.683 L432.09,221.683 L432.09,214.607 C432.09,211.417 431.887,210.518 430.959,209.59 C429.828,208.401 428.233,208.082 423.68,208.082 C417.88,208.082 416.14,208.923 416.14,211.678 C416.14,211.794 416.14,211.968 416.169,212.287 L418.402,212.287 Z M423.825,215.564 C428.552,215.564 429.828,216.028 429.828,217.768 C429.828,219.566 428.755,220.001 424.26,220.001 C420.838,220.001 419.417,219.914 418.808,219.624 C418.112,219.276 417.822,218.783 417.822,217.826 C417.822,216.927 418.083,216.347 418.663,215.999 C419.243,215.651 420.374,215.564 423.825,215.564 Z M434.323,208.256 L434.323,221.683 L436.44,221.683 L436.44,215.477 C436.44,210.779 437.339,209.938 442.443,209.938 C445.749,209.938 446.474,210.547 446.474,213.331 L446.474,214.288 L448.649,214.288 L448.649,212.896 C448.649,211.156 448.185,209.88 447.286,209.097 C446.387,208.314 445.285,208.082 442.675,208.082 C440.065,208.082 438.905,208.227 438.093,208.633 C437.397,209.01 436.933,209.445 436.585,210.054 L436.44,210.054 L436.44,208.256 L434.323,208.256 Z M474.372,208.082 C478.983,208.082 480.636,208.488 481.854,209.88 C482.869,211.04 483.159,212.258 483.217,215.448 L468.253,215.448 C468.311,217.188 468.601,218.232 469.239,218.899 C470.051,219.74 471.53,220.001 475.532,220.001 L475.840435,220.000159 C478.658414,219.984345 479.79,219.742 480.462,218.986 C480.81,218.638 480.868,218.406 480.955,217.536 L483.188,217.536 C483.101,220.755 481.216,221.857 475.764,221.857 C471.298,221.857 469.181,221.538 467.992,220.697 C466.629,219.74 465.962,217.884 465.962,215.013 C465.962,211.823 466.716,209.938 468.34,208.981 C469.471,208.314 471.037,208.082 474.372,208.082 Z M452.303,202.34 L452.303,213.418 L453.55,213.418 L461.67,208.256 L465.034,208.256 L455.667,214.375 L466.397,221.683 L462.859,221.683 L453.405,215.303 L452.303,215.303 L452.303,221.683 L450.186,221.683 L450.186,202.34 L452.303,202.34 Z M474.314,209.938 C469.674,209.938 468.543,210.634 468.311,213.621 L480.868,213.621 C480.839,210.663 479.534,209.938 474.314,209.938 Z M487.219,204.921 L487.219,208.256 L483.913,208.256 L483.913,210.083 L487.219,210.083 L487.219,216.579 C487.219,218.696 487.393,219.537 487.973,220.349 C488.756,221.422 490.293,221.857 493.164,221.857 C496.006,221.857 497.456,221.393 498.239,220.204 C498.79,219.392 498.964,218.551 498.964,216.434 L498.964,215.593 L496.847,215.593 L496.847,216.434 C496.847,218.087 496.76,218.58 496.441,219.073 C495.977,219.769 495.252,220.001 493.367,220.001 C491.337,220.001 490.38,219.74 489.829,219.073 C489.394,218.522 489.394,218.435 489.336,215.883 L489.336,210.083 L498.732,210.083 L498.732,208.256 L489.336,208.256 L489.336,204.921 L487.219,204.921 Z M500.588,208.256 L500.588,221.683 L502.705,221.683 L502.705,208.256 L500.588,208.256 Z M500.588,202.34 L500.588,204.863 L502.705,204.863 L502.705,202.34 L500.588,202.34 Z M505.141,208.256 L505.141,221.683 L507.258,221.683 L507.258,215.477 C507.258,212.925 507.403,212.287 508.041,211.504 C508.969,210.373 510.651,209.938 513.957,209.938 C516.886,209.938 518.22,210.257 518.916,211.098 C519.525,211.794 519.67,212.606 519.67,215.013 L519.67,221.683 L521.787,221.683 L521.787,214.114 C521.787,211.591 521.497,210.46 520.685,209.561 C519.641,208.459 518.046,208.082 514.189,208.082 C509.781,208.082 508.331,208.546 507.432,210.286 L507.258,210.286 L507.258,208.256 L505.141,208.256 Z M539.071,208.256 L539.1,209.967 L538.955,209.967 C538.607,209.387 538.259,209.068 537.621,208.72 C536.751,208.227 535.678,208.082 532.807,208.082 C529.269,208.082 527.645,208.285 526.485,208.836 C524.629,209.706 523.73,211.562 523.73,214.607 C523.73,217.333 524.397,219.044 525.847,220.117 C526.891,220.9 528.747,221.19 532.372,221.19 C536.693,221.19 537.766,220.9 538.926,219.45 L539.071,219.45 C538.955,222.205 538.839,222.872 538.23,223.626 C537.505,224.554 535.968,224.844 531.908,224.844 C527.587,224.844 526.427,224.322 526.282,222.35 L524.078,222.35 L524.078,222.495 C524.078,223.771 524.368,224.525 525.093,225.221 C526.224,226.294 528.109,226.7 532.111,226.7 C535.388,226.7 536.867,226.584 538.114,226.178 C539.506,225.772 540.608,224.525 540.898,223.133 C541.101,222.089 541.217,220.349 541.217,218.319 L541.217,208.256 L539.071,208.256 Z M532.807,209.938 C537.969,209.938 539.071,210.721 539.071,214.433 C539.071,216.753 538.665,217.971 537.621,218.638 C536.838,219.131 535.388,219.334 532.517,219.334 C529.994,219.334 528.486,219.16 527.761,218.812 C526.543,218.232 525.992,216.927 525.992,214.665 C525.992,212.49 526.514,211.127 527.558,210.605 C528.486,210.141 530.023,209.938 532.807,209.938 Z M572.479,221.683 L575.35,221.683 L564.417,202.34 L560.299,202.34 L549.337,221.683 L552.266,221.683 L554.557,217.594 L570.188,217.594 L572.479,221.683 Z M568.97,215.332 L555.804,215.332 L561.894,204.602 L562.938,204.602 L568.97,215.332 Z M575.901,208.256 L575.901,215.68 C575.901,218.464 576.249,219.74 577.206,220.581 C578.25,221.48 579.99,221.857 583.267,221.857 C587.443,221.857 588.835,221.393 589.908,219.682 L590.024,219.682 L590.024,221.683 L592.141,221.683 L592.141,208.256 L590.024,208.256 L590.024,214.897 C590.024,216.84 589.85,217.739 589.27,218.406 C588.371,219.537 586.718,220.001 583.499,220.001 C581.005,220.001 579.758,219.74 579.004,219.073 C578.221,218.406 578.018,217.565 578.018,215.042 L578.018,208.256 L575.901,208.256 Z M596.52,204.921 L596.52,208.256 L593.214,208.256 L593.214,210.083 L596.52,210.083 L596.52,216.579 C596.52,218.696 596.694,219.537 597.274,220.349 C598.057,221.422 599.594,221.857 602.465,221.857 C605.307,221.857 606.757,221.393 607.54,220.204 C608.091,219.392 608.265,218.551 608.265,216.434 L608.265,215.593 L606.148,215.593 L606.148,216.434 C606.148,218.087 606.061,218.58 605.742,219.073 C605.278,219.769 604.553,220.001 602.668,220.001 C600.638,220.001 599.681,219.74 599.13,219.073 C598.695,218.522 598.695,218.435 598.637,215.883 L598.637,210.083 L608.033,210.083 L608.033,208.256 L598.637,208.256 L598.637,204.921 L596.52,204.921 Z M617.951,208.082 C614.819,208.082 613.282,208.314 612.18,208.952 C610.498,209.909 609.715,211.794 609.715,214.897 C609.715,218.261 610.44,220.03 612.238,220.987 C613.427,221.625 615.109,221.857 618.908,221.857 C622.446,221.857 623.983,221.625 625.143,220.9 C626.709,219.914 627.405,218.116 627.405,214.955 C627.405,211.765 626.68,209.996 624.998,208.981 C623.867,208.285 622.156,208.082 617.951,208.082 Z M618.328,209.938 C621.083,209.938 622.562,210.112 623.403,210.518 C624.65,211.127 625.143,212.345 625.143,214.897 C625.143,217.304 624.766,218.522 623.838,219.189 C622.968,219.798 621.75,220.001 618.734,220.001 C616.211,220.001 614.877,219.856 613.978,219.537 C612.528,218.957 611.977,217.739 611.977,215.042 C611.977,212.635 612.412,211.301 613.427,210.663 C614.239,210.141 615.515,209.938 618.328,209.938 Z M629.435,208.256 L629.435,221.683 L631.552,221.683 L631.552,216.405 C631.552,212.867 631.697,211.939 632.393,211.156 C633.147,210.286 634.51,209.938 637.207,209.938 C639.701,209.938 641.035,210.228 641.789,210.924 C642.34,211.475 642.514,212.2 642.514,214.143 L642.514,221.683 L644.631,221.683 L644.631,216.405 C644.631,213.128 644.834,211.997 645.588,211.127 C646.313,210.257 647.618,209.938 650.286,209.938 C654.723,209.938 655.564,210.605 655.564,214.143 L655.564,221.683 L657.681,221.683 L657.681,214.607 C657.681,211.475 657.507,210.692 656.637,209.706 C655.506,208.488 653.969,208.082 650.315,208.082 C646.458,208.082 644.921,208.662 644.051,210.431 C643.007,208.604 641.47,208.082 637.091,208.082 C633.814,208.082 632.799,208.43 631.581,210.025 L631.552,208.256 L629.435,208.256 Z M662.263,212.287 C662.234,212.2 662.234,212.142 662.234,212.113 C662.234,210.286 663.133,209.938 667.715,209.938 C672.819,209.938 673.834,210.576 673.834,213.679 L673.834,215.129 L673.66,215.129 C672.732,213.853 671.804,213.679 666.265,213.679 C663.336,213.679 662.06,213.795 661.248,214.143 C659.943,214.694 659.421,215.709 659.421,217.768 C659.421,219.45 659.74,220.291 660.668,220.987 C661.625,221.683 662.988,221.857 667.686,221.857 C671.746,221.857 672.761,221.567 673.776,220.117 L673.863,220.117 L673.834,221.683 L675.951,221.683 L675.951,214.607 C675.951,211.417 675.748,210.518 674.82,209.59 C673.689,208.401 672.094,208.082 667.541,208.082 C661.741,208.082 660.001,208.923 660.001,211.678 C660.001,211.794 660.001,211.968 660.03,212.287 L662.263,212.287 Z M667.686,215.564 C672.413,215.564 673.689,216.028 673.689,217.768 C673.689,219.566 672.616,220.001 668.121,220.001 C664.699,220.001 663.278,219.914 662.669,219.624 C661.973,219.276 661.683,218.783 661.683,217.826 C661.683,216.927 661.944,216.347 662.524,215.999 C663.104,215.651 664.235,215.564 667.686,215.564 Z M680.243,204.921 L680.243,208.256 L676.937,208.256 L676.937,210.083 L680.243,210.083 L680.243,216.579 C680.243,218.696 680.417,219.537 680.997,220.349 C681.78,221.422 683.317,221.857 686.188,221.857 C689.03,221.857 690.48,221.393 691.263,220.204 C691.814,219.392 691.988,218.551 691.988,216.434 L691.988,215.593 L689.871,215.593 L689.871,216.434 C689.871,218.087 689.784,218.58 689.465,219.073 C689.001,219.769 688.276,220.001 686.391,220.001 C684.361,220.001 683.404,219.74 682.853,219.073 C682.418,218.522 682.418,218.435 682.36,215.883 L682.36,210.083 L691.756,210.083 L691.756,208.256 L682.36,208.256 L682.36,204.921 L680.243,204.921 Z M693.612,208.256 L693.612,221.683 L695.729,221.683 L695.729,208.256 L693.612,208.256 Z M693.612,202.34 L693.612,204.863 L695.729,204.863 L695.729,202.34 L693.612,202.34 Z M706.111,208.082 C702.979,208.082 701.442,208.314 700.34,208.952 C698.658,209.909 697.875,211.794 697.875,214.897 C697.875,218.261 698.6,220.03 700.398,220.987 C701.587,221.625 703.269,221.857 707.068,221.857 C710.606,221.857 712.143,221.625 713.303,220.9 C714.869,219.914 715.565,218.116 715.565,214.955 C715.565,211.765 714.84,209.996 713.158,208.981 C712.027,208.285 710.316,208.082 706.111,208.082 Z M706.488,209.938 C709.243,209.938 710.722,210.112 711.563,210.518 C712.81,211.127 713.303,212.345 713.303,214.897 C713.303,217.304 712.926,218.522 711.998,219.189 C711.128,219.798 709.91,220.001 706.894,220.001 C704.371,220.001 703.037,219.856 702.138,219.537 C700.688,218.957 700.137,217.739 700.137,215.042 C700.137,212.635 700.572,211.301 701.587,210.663 C702.399,210.141 703.675,209.938 706.488,209.938 Z M717.595,208.256 L717.595,221.683 L719.712,221.683 L719.712,215.477 C719.712,212.925 719.857,212.287 720.495,211.504 C721.423,210.373 723.105,209.938 726.411,209.938 C729.34,209.938 730.674,210.257 731.37,211.098 C731.979,211.794 732.124,212.606 732.124,215.013 L732.124,221.683 L734.241,221.683 L734.241,214.114 C734.241,211.591 733.951,210.46 733.139,209.561 C732.095,208.459 730.5,208.082 726.643,208.082 C722.235,208.082 720.785,208.546 719.886,210.286 L719.712,210.286 L719.712,208.256 L717.595,208.256 Z M252.05,75.953 L252.05,170 L338.765,170 L338.765,159.002 L264.599,159.002 L264.599,75.953 L252.05,75.953 Z M418.765,75.953 L418.765,122.201 C418.906,142.223 419.047,144.056 419.752,149.837 C420.88,159.425 426.943,166.475 435.685,168.308 C442.171,169.577 455.002,170.282 474.319,170.282 C489.547,170.282 505.762,169.436 511.966,168.308 C522.259,166.334 528.04,159.566 529.027,148.145 C529.591,142.364 529.591,141.659 529.732,122.201 L529.732,75.953 L517.183,75.953 L517.183,122.201 C517.042,149.273 516.901,150.824 514.222,153.926 C510.838,157.874 501.673,159.002 471.076,159.002 C445.837,159.002 436.672,157.733 433.993,153.785 C431.455,150.119 431.314,148.991 431.314,122.201 L431.314,75.953 L418.765,75.953 Z M614.526,75.953 L661.62,120.932 L609.732,170 L628.203,170 L672.618,126.431 L717.738,170 L735.645,170 L684.744,120.932 L733.107,75.953 L714.495,75.953 L673.182,115.574 L632.433,75.953 L614.526,75.953 Z M98.6044685,38.6618357 C98.6044685,38.6618357 90.3594656,61.6791355 101.696345,70.6112219 C113.033223,79.5433084 118.18635,95.0026888 116.468641,101.873525 C116.468641,101.873525 160.098448,100.155816 172.809494,128.326242 C172.809494,128.326242 172.122411,132.792285 199.262212,144.472706 C199.262212,144.472706 208.53784,147.564582 191.017209,168.177089 C191.017209,168.177089 193.765543,174.0173 181.398039,178.139801 C181.398039,178.139801 184.146373,193.25564 167.999909,190.507305 C151.853445,187.758971 129.866771,177.452718 144.295526,201.844184 C144.295526,201.844184 171.435327,228.640444 166.2822,252.001285 C166.2822,252.001285 149.448653,209.402104 95.8561342,203.561893 C95.8561342,203.561893 143.951984,214.555231 161.472615,263.338164 C161.472615,263.338164 151.853445,243.756282 109.254264,232.075862 C109.254264,232.075862 121.621768,236.541905 126.087811,250.627118 C126.087811,250.627118 122.652394,244.099824 83.4886298,232.762945 C44.3248662,221.426066 50.5086183,181.918761 52.569869,174.0173 C55.6617451,161.993337 64.5938316,131.418118 83.1450881,114.928112 C83.1450881,114.928112 72.4952927,105.652484 90.3594656,68.5499712 C90.0159238,68.893513 87.2675895,52.4035072 98.6044685,38.6618357 Z"/>
</svg>
